<svg width="155" height="155" viewBox="0 0 155 155" fill="none" xmlns="http://www.w3.org/2000/svg">
<circle cx="77.5" cy="77.5" r="76.5" stroke="white" stroke-width="2"/>
<path d="M35.7796 86.629C34.6471 86.629 33.5564 86.4981 32.5074 86.2363C31.4584 85.9746 30.5166 85.5879 29.6822 85.0763C28.8596 84.5646 28.204 83.9281 27.7152 83.1666C27.2384 82.3932 27 81.4949 27 80.4716C27 80.424 27 80.3705 27 80.311C27 80.2396 27 80.186 27 80.1504H32.5074C32.5074 80.186 32.5074 80.2277 32.5074 80.2753C32.5074 80.311 32.5074 80.3526 32.5074 80.4002C32.5074 81.0903 32.8114 81.596 33.4193 81.9173C34.0392 82.2385 34.8736 82.3991 35.9227 82.3991C36.471 82.3991 36.9955 82.3456 37.4962 82.2385C38.0088 82.1195 38.426 81.9351 38.7479 81.6852C39.0817 81.4235 39.2485 81.0963 39.2485 80.7036C39.2485 80.073 38.8969 79.6268 38.1936 79.3651C37.5022 79.1033 36.3876 78.8415 34.8498 78.5798C33.9796 78.437 33.0975 78.2347 32.2034 77.973C31.3093 77.7112 30.4868 77.3661 29.7358 76.9378C28.9848 76.4976 28.3828 75.9443 27.9298 75.278C27.4768 74.5998 27.2503 73.7788 27.2503 72.815C27.2503 71.53 27.6378 70.4473 28.4126 69.5668C29.1994 68.6863 30.2424 68.02 31.5418 67.5679C32.8412 67.1157 34.2716 66.8897 35.8333 66.8897C37.3233 66.8897 38.7121 67.1395 39.9996 67.6393C41.287 68.1271 42.3301 68.835 43.1287 69.7631C43.9274 70.6793 44.3268 71.7858 44.3268 73.0827C44.3268 73.1065 44.3268 73.1422 44.3268 73.1898C44.3268 73.2374 44.3268 73.285 44.3268 73.3326H38.873C38.873 73.285 38.873 73.2434 38.873 73.2077C38.873 73.172 38.873 73.1422 38.873 73.1184C38.873 72.6425 38.7181 72.2558 38.4081 71.9584C38.1101 71.6609 37.7287 71.4408 37.2637 71.298C36.7988 71.1433 36.316 71.066 35.8154 71.066C35.3624 71.066 34.8915 71.1195 34.4028 71.2266C33.9259 71.3218 33.5206 71.4884 33.1869 71.7263C32.8531 71.9524 32.6862 72.2737 32.6862 72.6901C32.6862 73.0946 32.865 73.4278 33.2226 73.6896C33.5802 73.9394 34.0809 74.1476 34.7246 74.3142C35.3684 74.4689 36.1134 74.6176 36.9598 74.7604C37.7585 74.8913 38.5989 75.0757 39.481 75.3137C40.3751 75.5398 41.2095 75.867 41.9844 76.2953C42.7711 76.7117 43.4029 77.265 43.8797 77.9551C44.3685 78.6333 44.6129 79.4959 44.6129 80.543C44.6129 81.6257 44.3625 82.5538 43.8619 83.3272C43.3612 84.1006 42.6817 84.7312 41.8234 85.219C40.9771 85.695 40.0294 86.046 38.9803 86.272C37.9432 86.51 36.8763 86.629 35.7796 86.629Z" fill="white"/>
<path d="M47.7046 94V67.2466H53.2656V94H47.7046ZM59.1306 86.629C57.6286 86.629 56.2518 86.2304 55.0001 85.4332C53.7484 84.6241 52.7471 83.5414 51.9961 82.185C51.2451 80.8167 50.8696 79.2818 50.8696 77.5803C50.8696 77.5327 50.8696 77.4911 50.8696 77.4554C50.8696 77.4078 50.8696 77.3542 50.8696 77.2948L53.2656 77.2412C53.2656 77.2769 53.2656 77.3126 53.2656 77.3483C53.2656 77.384 53.2656 77.4197 53.2656 77.4554C53.2656 78.3359 53.4802 79.1092 53.9094 79.7756C54.3385 80.43 54.8928 80.9356 55.5723 81.2926C56.2518 81.6495 56.9611 81.828 57.7002 81.828C58.9161 81.828 59.9711 81.4116 60.8651 80.5787C61.7711 79.7339 62.2241 78.4191 62.2241 76.6344C62.2241 74.8496 61.777 73.5527 60.883 72.7436C59.9889 71.9227 58.928 71.5122 57.7002 71.5122C56.9611 71.5122 56.2518 71.6906 55.5723 72.0476C54.8928 72.3926 54.3385 72.8864 53.9094 73.5289C53.4802 74.1714 53.2656 74.9389 53.2656 75.8313L50.8696 75.6885C50.8696 73.9751 51.2451 72.464 51.9961 71.1552C52.7471 69.8345 53.7484 68.7934 55.0001 68.0319C56.2518 67.2704 57.6286 66.8897 59.1306 66.8897C60.6684 66.8897 62.1049 67.2704 63.44 68.0319C64.7751 68.7815 65.8539 69.8821 66.6765 71.3337C67.5109 72.7853 67.9281 74.5522 67.9281 76.6344C67.9281 78.8118 67.5228 80.6441 66.7122 82.1314C65.9016 83.6187 64.8288 84.7431 63.4936 85.5046C62.1585 86.2542 60.7042 86.629 59.1306 86.629Z" fill="white"/>
<path d="M80.5382 86.6111C78.4879 86.6111 76.6819 86.1888 75.1202 85.344C73.5586 84.4992 72.3368 83.3391 71.4546 81.8637C70.5844 80.3764 70.1493 78.6631 70.1493 76.7236C70.1493 74.7961 70.5844 73.0946 71.4546 71.6193C72.3368 70.132 73.5586 68.9778 75.1202 68.1568C76.6819 67.324 78.4879 66.9075 80.5382 66.9075C82.5886 66.9075 84.3946 67.324 85.9562 68.1568C87.5178 68.9778 88.7337 70.132 89.6039 71.6193C90.4861 73.0946 90.9271 74.7961 90.9271 76.7236C90.9271 78.6631 90.4861 80.3764 89.6039 81.8637C88.7337 83.3391 87.5178 84.4992 85.9562 85.344C84.3946 86.1888 82.5886 86.6111 80.5382 86.6111Z" fill="white"/>
<path d="M103.226 86.5933C102.499 86.5933 101.748 86.5279 100.973 86.397C100.21 86.278 99.4951 86.0341 98.8275 85.6652C98.1719 85.2845 97.6414 84.7312 97.2361 84.0054C96.8308 83.2796 96.6281 82.3218 96.6281 81.132C96.6281 80.8702 96.6281 80.6025 96.6281 80.3288C96.6281 80.0552 96.6281 79.7815 96.6281 79.5078V71.53H92.2473V67.2466H93.481C94.1963 67.2466 94.7625 67.2169 95.1798 67.1574C95.6089 67.0979 95.9248 66.9492 96.1274 66.7112C96.342 66.4613 96.4791 66.0746 96.5387 65.5511C96.5983 65.0276 96.6281 64.3077 96.6281 63.3916V61H102.189V67.2466H107.714V71.53H102.189V78.3478C102.189 78.5619 102.189 78.7701 102.189 78.9724C102.189 79.1747 102.189 79.371 102.189 79.5614C102.189 80.3824 102.285 81.0487 102.475 81.5603C102.678 82.0719 103.173 82.3277 103.959 82.3277C104.353 82.3277 104.722 82.2921 105.068 82.2207C105.426 82.1493 105.694 82.0779 105.873 82.0065V86.165C105.622 86.272 105.271 86.3672 104.818 86.4505C104.365 86.5457 103.834 86.5933 103.226 86.5933Z" fill="white"/>
<path d="M118.167 86.629C117.034 86.629 115.944 86.4981 114.894 86.2363C113.845 85.9746 112.904 85.5879 112.069 85.0763C111.247 84.5646 110.591 83.9281 110.102 83.1666C109.626 82.3932 109.387 81.4949 109.387 80.4716C109.387 80.424 109.387 80.3705 109.387 80.311C109.387 80.2396 109.387 80.186 109.387 80.1504H114.894C114.894 80.186 114.894 80.2277 114.894 80.2753C114.894 80.311 114.894 80.3526 114.894 80.4002C114.894 81.0903 115.198 81.596 115.806 81.9173C116.426 82.2385 117.261 82.3991 118.31 82.3991C118.858 82.3991 119.383 82.3456 119.883 82.2385C120.396 82.1195 120.813 81.9351 121.135 81.6852C121.469 81.4235 121.636 81.0963 121.636 80.7036C121.636 80.073 121.284 79.6268 120.581 79.3651C119.889 79.1033 118.775 78.8415 117.237 78.5798C116.367 78.437 115.485 78.2347 114.591 77.973C113.696 77.7112 112.874 77.3661 112.123 76.9378C111.372 76.4976 110.77 75.9443 110.317 75.278C109.864 74.5998 109.637 73.7788 109.637 72.815C109.637 71.53 110.025 70.4473 110.8 69.5668C111.586 68.6863 112.63 68.02 113.929 67.5679C115.228 67.1157 116.659 66.8897 118.22 66.8897C119.71 66.8897 121.099 67.1395 122.387 67.6393C123.674 68.1271 124.717 68.835 125.516 69.7631C126.315 70.6793 126.714 71.7858 126.714 73.0827C126.714 73.1065 126.714 73.1422 126.714 73.1898C126.714 73.2374 126.714 73.285 126.714 73.3326H121.26C121.26 73.285 121.26 73.2434 121.26 73.2077C121.26 73.172 121.26 73.1422 121.26 73.1184C121.26 72.6425 121.105 72.2558 120.795 71.9584C120.497 71.6609 120.116 71.4408 119.651 71.298C119.186 71.1433 118.703 71.066 118.202 71.066C117.75 71.066 117.279 71.1195 116.79 71.2266C116.313 71.3218 115.908 71.4884 115.574 71.7263C115.24 71.9524 115.073 72.2737 115.073 72.6901C115.073 73.0946 115.252 73.4278 115.61 73.6896C115.967 73.9394 116.468 74.1476 117.112 74.3142C117.755 74.4689 118.501 74.6176 119.347 74.7604C120.146 74.8913 120.986 75.0757 121.868 75.3137C122.762 75.5398 123.597 75.867 124.371 76.2953C125.158 76.7117 125.79 77.265 126.267 77.9551C126.756 78.6333 127 79.4959 127 80.543C127 81.6257 126.75 82.5538 126.249 83.3272C125.748 84.1006 125.069 84.7312 124.211 85.219C123.364 85.695 122.416 86.046 121.367 86.272C120.33 86.51 119.263 86.629 118.167 86.629Z" fill="white"/>
</svg>
