<svg width="26" height="26" viewBox="0 0 26 26" fill="none" xmlns="http://www.w3.org/2000/svg">
<path d="M21.9994 17.4765V20.1862C22.0005 20.4377 21.9488 20.6867 21.8479 20.9172C21.7469 21.1477 21.5988 21.3546 21.413 21.5247C21.2273 21.6947 21.008 21.8242 20.7693 21.9048C20.5305 21.9854 20.2775 22.0153 20.0265 21.9927C17.2415 21.6907 14.5664 20.7409 12.216 19.2197C10.0293 17.8329 8.17534 15.9827 6.7858 13.8003C5.25627 11.4439 4.30442 8.76107 4.00735 5.96915C3.98473 5.71938 4.01447 5.46764 4.09468 5.22996C4.17489 4.99229 4.30381 4.77389 4.47323 4.58866C4.64265 4.40343 4.84885 4.25544 5.07872 4.15411C5.30858 4.05278 5.55707 4.00032 5.80837 4.00009H8.52347C8.96269 3.99577 9.3885 4.151 9.72152 4.43683C10.0545 4.72267 10.2721 5.11961 10.3335 5.55366C10.4481 6.42084 10.6607 7.27229 10.9671 8.09177C11.0888 8.41507 11.1152 8.76642 11.043 9.1042C10.9708 9.44198 10.8031 9.75203 10.5598 9.99761L9.41041 11.1447C10.6988 13.406 12.5748 15.2784 14.8406 16.5642L15.99 15.4171C16.2361 15.1742 16.5467 15.0069 16.8852 14.9348C17.2236 14.8628 17.5757 14.8891 17.8996 15.0106C18.7207 15.3164 19.5739 15.5285 20.4428 15.6429C20.8824 15.7048 21.2839 15.9258 21.5709 16.2639C21.858 16.6019 22.0105 17.0335 21.9994 17.4765Z" stroke="#1D202B" stroke-width="1.5" stroke-linecap="round" stroke-linejoin="round"/>
</svg>
